<svg viewBox="0 0 24 24" fill="none" xmlns="http://www.w3.org/2000/svg" focusable="false"><path d="M24 12c0 6.627-5.373 12-12 12S0 18.627 0 12 5.373 0 12 0c6.628 0 12 5.373 12 12Z" fill="#2081E2"></path><path d="M19.835 14.084v-.773a.108.108 0 0 0-.137-.104l-3.65 1.055a.102.102 0 0 0-.051.031c-.391.432-.724.722-.812.799l-.006.005a1.236 1.236 0 0 1-.804.297h-1.321v-1.347h1.05a.11.11 0 0 0 .073-.027l.136-.125c.057-.053.127-.117.21-.2l.02-.021c.044-.043.09-.09.136-.14.054-.053.107-.112.156-.17a8.07 8.07 0 0 0 .582-.71l.064-.09.063-.09c.04-.058.08-.121.112-.18a3.447 3.447 0 0 0 .353-.73l.01-.027a1.992 1.992 0 0 0 .107-.873 1.137 1.137 0 0 0-.024-.187v-.01a.747.747 0 0 0-.029-.131c-.044-.2-.113-.4-.2-.596a3.42 3.42 0 0 0-.098-.214 5.56 5.56 0 0 0-.363-.596c-.06-.091-.126-.18-.19-.265l-.044-.058c-.038-.05-.08-.1-.122-.15l-.07-.084a9.076 9.076 0 0 0-.19-.224 10.166 10.166 0 0 0-.811-.81 10.075 10.075 0 0 0-.55-.472 3.35 3.35 0 0 0-.062-.051l-.1-.076a6.146 6.146 0 0 0-.047-.035.113.113 0 0 0-.032-.016l-.14-.04V5.486A.69.69 0 0 0 12.855 5a.67.67 0 0 0-.48-.201.682.682 0 0 0-.677.686v.784l-.07-.02-.192-.054-.174-.048h-.001l-.004-.002h-.003l-1.32-.357a.069.069 0 0 0-.077.1l.21.39c.013.03.028.06.043.09l.03.06c.035.07.07.143.103.215.03.065.059.127.093.196l.045.1a13.202 13.202 0 0 1 .312.745c.118.307.23.635.328.972.024.075.043.148.063.222l.026.094.013.06c.04.156.074.311.099.468.02.107.038.21.048.313.015.117.03.235.034.352.01.107.015.219.015.326a3.477 3.477 0 0 1-.093.827c-.017.061-.034.124-.054.184a2.77 2.77 0 0 1-.066.197l-.026.072-.005.013a7.768 7.768 0 0 1-.49 1.007 12.399 12.399 0 0 1-.65 1.033l-.033.05a.11.11 0 0 0 .09.172h1.706v1.347H9.972c-.464 0-.893-.262-1.1-.683a1.19 1.19 0 0 1-.125-.67c.006-.067-.044-.131-.113-.131H5.147a.107.107 0 0 0-.107.107v.072a4.02 4.02 0 0 0 4.013 4.026h6.254c1.173 0 1.839-1.068 2.493-2.118.182-.293.364-.584.555-.85.344-.479 1.171-.859 1.413-.962a.111.111 0 0 0 .067-.101Z" fill="#fff"></path><path d="m5.972 12.322-.052.081a.107.107 0 0 0 .091.164h3.21a.106.106 0 0 0 .09-.047c.042-.064.081-.13.117-.198.277-.466.524-.97.614-1.343.21-.905-.24-2.358-.76-3.527a.107.107 0 0 0-.188-.014l-3.122 4.884Z" fill="#fff"></path></svg>